# xmcd
#
# Track frame offsets:
#	150
#	16344
#	28385
#	49506
#	63152
#	83416
#	93701
#	114281
#	130395
#	148576
#	167093
#	175564
#	195168
#	218411
#	224562
#	240619
#
# Disc length: 3334 seconds
#
# Revision: 1
# Processed by: cddbd v1.5.2PL0 Copyright (c) Steve Scherf et al.
# Submitted via: audiograbber 1.83.01
#
DISCID=d10d0410
DTITLE=Markus James - Head For The Hill
DYEAR=2014
DGENRE=Country
TTITLE0=Just Say Yes
TTITLE1=Going Down South 
TTITLE2=Head For The Hills
TTITLE3=Shake
TTITLE4=Suit Of Golden Clothes
TTITLE5=For Blind Willie
TTITLE6=Gone Like Tomorrow
TTITLE7=Fallin From The Sky
TTITLE8=Nomo
TTITLE9=Head For The Hills
TTITLE10=On A Misssissippi Porch
TTITLE11=Sleeepyhead
TTITLE12=Candyland Refugee
TTITLE13=Diddley Bow And Buckets
TTITLE14=WSoke Me
TTITLE15=Green
EXTD=
EXTT0=
EXTT1=
EXTT2=
EXTT3=
EXTT4=
EXTT5=
EXTT6=
EXTT7=
EXTT8=
EXTT9=
EXTT10=
EXTT11=
EXTT12=
EXTT13=
EXTT14=
EXTT15=
PLAYORDER=
